<?xml version="1.0" standalone="no"?>
<!DOCTYPE svg PUBLIC "-//W3C//DTD SVG 20010904//EN"
 "http://www.w3.org/TR/2001/REC-SVG-20010904/DTD/svg10.dtd">
<svg version="1.0" xmlns="http://www.w3.org/2000/svg"
 width="512.000000pt" height="512.000000pt" viewBox="0 0 512.000000 512.000000"
 preserveAspectRatio="xMidYMid meet">

<g transform="translate(0.000000,512.000000) scale(0.100000,-0.100000)"
fill="#000000" stroke="none">
<path d="M1045 4951 c-92 -24 -173 -90 -215 -176 -25 -49 -25 -55 -25 -292 l0
-243 -80 0 c-215 -1 -405 -110 -499 -289 -70 -134 -66 -3 -66 -1993 l0 -1797
318 -3 c174 -2 318 -3 320 -2 1 1 42 289 90 642 48 352 89 643 92 645 4 4 107
-440 288 -1239 l14 -62 36 9 c20 5 179 9 352 8 173 -1 337 2 363 6 43 7 48 10
43 29 -2 11 -93 532 -200 1157 -178 1032 -196 1147 -196 1252 l0 116 338 3
338 3 42 27 c27 19 48 44 64 78 l23 50 75 0 75 0 23 -50 c16 -34 37 -59 64
-78 l42 -27 418 -3 418 -3 0 -1279 0 -1280 80 0 80 0 0 640 0 640 120 0 120 0
0 -640 0 -640 80 0 80 0 0 640 0 640 260 0 261 0 -6 -32 c-3 -18 -46 -289 -95
-603 -49 -314 -92 -584 -95 -601 l-5 -31 76 -12 c41 -7 78 -11 80 -8 2 2 57
332 121 733 l116 729 1 190 c1 248 -22 377 -118 664 -71 210 -80 343 -36 516
28 109 66 184 123 244 64 67 95 129 110 216 14 82 0 175 -39 252 -29 56 -136
166 -173 178 -20 6 -21 13 -21 273 0 196 -4 286 -15 337 -57 270 -309 475
-585 475 -276 0 -528 -205 -585 -475 -11 -51 -15 -140 -15 -331 l0 -262 -56
-28 c-30 -15 -84 -55 -120 -87 l-64 -59 0 317 0 316 -25 24 -24 25 -669 0
c-644 0 -671 -1 -693 -19 -22 -18 -24 -28 -29 -140 l-5 -120 -53 35 c-77 52
-153 76 -260 82 -89 5 -93 6 -88 26 3 12 6 65 6 119 l0 97 80 0 80 0 0 80 0
80 -79 0 -79 0 -7 48 c-4 26 -21 73 -38 105 -52 99 -141 156 -256 162 -36 2
-79 1 -96 -4z m117 -161 c37 -11 108 -78 108 -104 0 -8 3 -21 6 -30 5 -14 -12
-16 -156 -16 -144 0 -161 2 -156 16 3 9 6 22 6 30 0 23 70 93 104 103 42 12
46 12 88 1z m118 -394 c0 -116 -7 -143 -51 -187 -96 -96 -254 -36 -267 102 -5
51 -5 51 54 110 l58 59 103 0 103 0 0 -84z m2740 -6 c54 -43 139 -80 183 -80
l37 0 0 -51 c0 -95 -55 -163 -142 -175 -55 -8 -115 20 -150 68 -19 27 -24 48
-27 121 -3 86 -2 90 25 118 15 16 30 29 32 29 2 0 21 -13 42 -30z m-1700 -405
l0 -256 25 -24 c33 -34 63 -31 145 10 l70 35 70 -35 c82 -41 112 -44 145 -10
l25 24 0 256 0 255 160 0 160 0 0 -420 0 -420 -32 20 c-65 39 -155 15 -190
-51 -13 -25 -18 -56 -18 -120 l0 -86 -93 -62 -93 -61 -134 0 -134 0 -93 61
-93 62 0 86 c0 64 -5 95 -18 120 -35 66 -125 90 -189 51 l-33 -20 0 420 0 420
160 0 160 0 0 -255z m320 80 l0 -176 -30 16 c-16 8 -38 15 -50 15 -12 0 -34
-7 -50 -15 l-30 -16 0 176 0 175 80 0 80 0 0 -175z m-1696 -13 l45 -29 -55
-26 -54 -27 0 55 c0 30 4 55 10 55 5 0 29 -13 54 -28z m416 -27 l0 -55 -54 27
-55 26 42 28 c61 40 67 38 67 -26z m2876 -170 c-4 -17 -20 -45 -37 -61 -25
-24 -39 -29 -79 -29 -42 0 -54 5 -81 32 -25 24 -33 42 -36 80 l-5 49 68 -3
c47 -2 85 3 119 14 l50 18 3 -35 c2 -19 1 -48 -2 -65z m-366 -105 c0 -19 84
-102 125 -122 23 -12 67 -23 105 -25 91 -7 162 21 224 87 25 27 46 54 46 61 0
8 34 10 123 7 98 -3 130 -8 162 -25 91 -47 138 -124 139 -223 0 -98 -29 -143
-170 -265 -63 -55 -118 -101 -122 -103 -4 -1 -51 42 -104 95 l-98 98 62 50
c34 28 68 55 76 61 13 10 8 20 -32 70 -27 32 -51 60 -55 62 -3 1 -91 -66 -194
-148 l-187 -151 -128 3 -127 3 -15 30 c-20 41 -19 135 3 168 53 83 55 70 -16
116 -35 22 -68 41 -73 41 -14 0 -61 -83 -80 -141 -13 -38 -15 -72 -11 -135 l5
-84 -124 0 -124 0 0 103 0 103 108 106 c107 105 158 140 229 157 54 13 253 13
253 1z m-2125 -410 l59 -60 -62 0 -62 0 0 60 c0 33 1 60 3 60 1 0 29 -27 62
-60z m-726 -144 c28 -35 58 -67 67 -70 9 -3 207 -6 441 -6 l425 0 64 62 64 61
0 -72 c0 -40 4 -80 9 -90 6 -10 60 -51 121 -91 74 -49 110 -79 108 -89 -3 -14
-69 -16 -668 -16 l-665 0 -58 27 c-59 28 -190 151 -185 175 3 11 206 171 220
172 3 1 29 -28 57 -63z m2579 -76 l430 0 72 56 72 57 102 -102 101 -102 -50
-46 c-27 -25 -75 -58 -105 -72 l-55 -26 -680 0 c-613 0 -680 2 -683 16 -2 10
34 40 108 89 61 40 115 81 121 91 5 10 9 50 9 90 l0 72 64 -61 64 -62 430 0z
m940 -222 c-5 -35 -7 -107 -5 -160 l5 -98 -389 0 -389 0 0 40 0 40 198 0 c108
0 217 5 242 11 78 18 162 67 255 149 50 44 90 79 91 80 0 0 -3 -28 -8 -62z"/>
</g>
</svg>
