<?xml version="1.0" standalone="no"?>
<!DOCTYPE svg PUBLIC "-//W3C//DTD SVG 20010904//EN"
 "http://www.w3.org/TR/2001/REC-SVG-20010904/DTD/svg10.dtd">
<svg version="1.0" xmlns="http://www.w3.org/2000/svg"
 width="32.000000pt" height="32.000000pt" viewBox="0 0 32.000000 32.000000"
 preserveAspectRatio="xMidYMid meet">

<g transform="translate(0.000000,32.000000) scale(0.100000,-0.100000)"
fill="#FFFFFF" stroke="none">
<path d="M170 260 c0 -5 8 -14 18 -19 13 -8 14 -10 2 -11 -13 0 -13 -1 0 -10
8 -6 29 -7 45 -4 21 4 26 2 16 -4 -8 -6 -11 -17 -7 -27 4 -11 0 -25 -10 -36
-16 -18 -18 -18 -42 6 -14 14 -32 25 -41 25 -9 0 -3 -8 16 -19 30 -19 51 -56
39 -68 -3 -4 -6 -1 -6 6 0 7 -5 9 -12 5 -7 -4 -23 -9 -37 -10 -18 -2 -21 0
-12 9 22 22 11 44 -34 68 -42 23 -64 48 -29 35 43 -16 61 -17 74 -1 12 14 12
16 -1 14 -7 -1 -27 3 -42 9 -16 7 -31 12 -35 12 -13 0 -35 -44 -25 -47 6 -2
19 -10 29 -18 18 -14 18 -14 -6 -15 -58 0 -91 -58 -54 -94 20 -20 68 -21 84
-1 8 9 30 15 60 15 30 0 52 -6 60 -15 7 -8 25 -15 41 -15 57 0 80 62 35 98
-19 14 -22 22 -14 30 16 16 -20 55 -44 49 -10 -3 -15 -1 -12 4 3 5 -1 16 -10
24 -16 17 -46 20 -46 5z m110 -70 c0 -5 -7 -10 -15 -10 -8 0 -15 5 -15 10 0 6
7 10 15 10 8 0 15 -4 15 -10z m-176 -54 c-3 -9 -10 -16 -15 -16 -6 0 -5 9 1
21 13 24 24 20 14 -5z m150 -21 c-5 -19 -2 -25 10 -25 9 0 16 5 16 11 0 5 -5
7 -12 3 -7 -5 -8 -3 -3 5 5 9 11 9 17 3 12 -12 2 -32 -17 -32 -19 0 -27 17
-20 40 9 29 17 25 9 -5z m-198 -2 c-4 -9 -1 -20 6 -25 10 -6 9 -8 -4 -8 -23 0
-32 18 -18 35 16 20 24 19 16 -2z m72 -9 c-11 -11 -23 -14 -39 -8 l-24 8 25 7
c46 13 56 11 38 -7z"/>
</g>
</svg>
